<svg width="512" height="438" viewBox="0 0 512 438" fill="none" xmlns="http://www.w3.org/2000/svg">
<path d="M143.022 310.67H159.309H437.001C443.711 310.67 449.623 306.262 451.539 299.831L511.368 98.943C512.735 94.353 511.853 89.387 508.991 85.547C506.128 81.707 501.62 79.445 496.831 79.445H110.789L90.377 10.905C88.462 4.475 82.549 0.0670015 75.839 0.0670015H15.169C6.792 0.0660015 0 6.857 0 15.235C0 23.612 6.792 30.404 15.169 30.404H64.53L84.845 98.615C84.907 98.84 84.972 99.063 85.044 99.283L139.01 280.485C108.206 282.557 83.773 308.263 83.773 339.583C83.773 372.253 110.352 398.832 143.021 398.832H158.08C164.661 421.395 185.517 437.934 210.177 437.934C234.836 437.934 255.693 421.396 262.274 398.832H342.756C349.337 421.395 370.193 437.934 394.853 437.934C419.512 437.934 440.369 421.396 446.95 398.832H466.493C474.87 398.832 481.662 392.04 481.662 383.663C481.662 375.286 474.87 368.494 466.493 368.494H446.95C440.369 345.93 419.513 329.392 394.853 329.392C370.193 329.392 349.336 345.93 342.756 368.494H262.274C255.693 345.93 234.837 329.392 210.177 329.392C185.517 329.392 164.66 345.93 158.08 368.494H143.021C127.079 368.494 114.11 355.524 114.11 339.582C114.11 323.64 127.08 310.67 143.022 310.67ZM365.546 109.781H476.487L455.607 179.888H365.546V109.781V109.781ZM365.545 210.226H446.571L425.692 280.333H365.545V210.226ZM253.304 109.781H335.209V179.888H253.304V109.781ZM253.303 210.226H335.208V280.333H253.303V210.226V210.226ZM222.968 280.333H170.619L149.74 210.226H222.968V280.333V280.333ZM119.826 109.781H222.967V179.888H140.705L119.826 109.781ZM394.854 359.729C408.051 359.729 418.787 370.465 418.787 383.662C418.787 396.859 408.051 407.595 394.854 407.595C381.657 407.595 370.921 396.859 370.921 383.662C370.921 370.465 381.657 359.729 394.854 359.729ZM210.178 359.729C223.375 359.729 234.111 370.465 234.111 383.662C234.111 396.859 223.375 407.595 210.178 407.595C196.981 407.595 186.245 396.859 186.245 383.662C186.245 370.465 196.981 359.729 210.178 359.729Z" fill="#FF7F1A"/>
</svg>
