<svg id="Capa_1" enable-background="new 0 0 512.125 512.125" height="512" viewBox="0 0 512.125 512.125" width="512" xmlns="http://www.w3.org/2000/svg"><g><path d="m238.91 266.365c-21.261 59.443-35.198 153.092-36.57 245.76h107.446c-1.372-92.668-15.309-186.318-36.57-245.76z"/><path d="m162.731 120.227 22.934 37.351h140.793l22.934-37.351c13.998-22.796 11.708-52.341-5.373-72.722v-47.505h-30v82.648c-16.108 10.668-36.346 16.497-57.775 16.497-20.648 0-41.406-5.653-58.142-16.732v-82.413h-30v47.506c-17.077 20.38-19.368 49.925-5.371 72.721z"/><path d="m329.076 266.365h-24.181c20.376 62.677 33.57 154.965 34.894 245.76h97.99c-3.404-99.325-40.803-183.923-108.703-245.76z"/><path d="m192.274 187.577h127.577v48.788h-127.577z"/><path d="m183.049 266.365c-67.9 61.837-105.299 146.435-108.702 245.76h97.99c1.323-90.795 14.517-183.083 34.894-245.76z"/></g></svg>